# Created by FreeCAD <http://www.freecad.org>
v 4.000000 0.000000 0.000000
v 3.968459 0.501333 0.000000
v 4.000000 0.000000 8.000000
v 3.968459 0.501333 8.000000
v 3.874333 0.994760 0.000000
v 3.874333 0.994760 8.000000
v 3.719106 1.472498 0.000000
v 3.719106 1.472498 8.000000
v 3.505227 1.927015 0.000000
v 3.505227 1.927015 8.000000
v 3.236068 2.351141 8.000000
v 3.236068 2.351141 0.000000
v 2.915874 2.738189 8.000000
v 2.915874 2.738189 0.000000
v 2.549696 3.082053 0.000000
v 2.549696 3.082053 8.000000
v 2.143307 3.377312 8.000000
v 2.143307 3.377312 0.000000
v 1.703117 3.619308 8.000000
v 1.703117 3.619308 0.000000
v 1.236068 3.804226 8.000000
v 1.236068 3.804226 0.000000
v 0.749525 3.929149 8.000000
v 0.749525 3.929149 0.000000
v 0.251162 3.992107 8.000000
v 0.251162 3.992107 0.000000
v -0.251162 3.992107 0.000000
v -0.251162 3.992107 8.000000
v -0.749525 3.929149 8.000000
v -0.749525 3.929149 0.000000
v -1.236068 3.804226 0.000000
v -1.236068 3.804226 8.000000
v -1.703117 3.619308 8.000000
v -1.703117 3.619308 0.000000
v -2.143307 3.377312 0.000000
v -2.143307 3.377312 8.000000
v -2.549696 3.082053 0.000000
v -2.549696 3.082053 8.000000
v -2.915874 2.738189 0.000000
v -2.915874 2.738189 8.000000
v -3.236068 2.351141 0.000000
v -3.236068 2.351141 8.000000
v -3.505227 1.927015 0.000000
v -3.505227 1.927015 8.000000
v -3.719106 1.472498 8.000000
v -3.719106 1.472498 0.000000
v -3.874333 0.994760 0.000000
v -3.874333 0.994760 8.000000
v -3.968459 0.501333 0.000000
v -3.968459 0.501333 8.000000
v -4.000000 -0.000000 0.000000
v -4.000000 -0.000000 8.000000
v -3.968459 -0.501333 0.000000
v -3.968459 -0.501333 8.000000
v -3.874333 -0.994760 0.000000
v -3.874333 -0.994760 8.000000
v -3.719106 -1.472498 8.000000
v -3.719106 -1.472498 0.000000
v -3.505227 -1.927015 0.000000
v -3.505227 -1.927015 8.000000
v -3.236068 -2.351141 0.000000
v -3.236068 -2.351141 8.000000
v -2.915874 -2.738189 0.000000
v -2.915874 -2.738189 8.000000
v -2.549696 -3.082053 0.000000
v -2.549696 -3.082053 8.000000
v -2.143307 -3.377312 0.000000
v -2.143307 -3.377312 8.000000
v -1.703117 -3.619308 0.000000
v -1.703117 -3.619308 8.000000
v -1.236068 -3.804226 0.000000
v -1.236068 -3.804226 8.000000
v -0.749525 -3.929149 0.000000
v -0.749525 -3.929149 8.000000
v -0.251162 -3.992107 0.000000
v -0.251162 -3.992107 8.000000
v 0.251162 -3.992107 0.000000
v 0.251162 -3.992107 8.000000
v 0.749525 -3.929149 0.000000
v 0.749525 -3.929149 8.000000
v 1.236068 -3.804226 0.000000
v 1.236068 -3.804226 8.000000
v 1.703117 -3.619308 8.000000
v 1.703117 -3.619308 0.000000
v 2.143307 -3.377312 8.000000
v 2.143307 -3.377312 0.000000
v 2.549696 -3.082053 0.000000
v 2.549696 -3.082053 8.000000
v 2.915874 -2.738189 0.000000
v 2.915874 -2.738189 8.000000
v 3.236068 -2.351141 8.000000
v 3.236068 -2.351141 0.000000
v 3.505227 -1.927015 8.000000
v 3.505227 -1.927015 0.000000
v 3.719106 -1.472498 0.000000
v 3.719106 -1.472498 8.000000
v 3.874333 -0.994760 0.000000
v 3.874333 -0.994760 8.000000
v 3.968459 -0.501333 0.000000
v 3.968459 -0.501333 8.000000
vn 0.998027 0.062790 -0.000000
vn 0.998027 0.062790 0.000000
vn 0.982287 0.187381 0.000000
vn 0.982287 0.187381 -0.000000
vn 0.951057 0.309017 0.000000
vn 0.951057 0.309017 -0.000000
vn 0.904827 0.425779 0.000000
vn 0.844328 0.535827 0.000000
vn 0.904827 0.425779 -0.000000
vn 0.770513 0.637424 0.000000
vn 0.844328 0.535827 0.000000
vn 0.770513 0.637424 0.000000
vn 0.684547 0.728969 0.000000
vn 0.587785 0.809017 0.000000
vn 0.684547 0.728969 -0.000000
vn 0.481754 0.876307 0.000000
vn 0.587785 0.809017 0.000000
vn 0.368125 0.929776 0.000000
vn 0.481754 0.876307 0.000000
vn 0.248690 0.968583 0.000000
vn 0.368125 0.929776 0.000000
vn 0.125333 0.992115 0.000000
vn 0.248690 0.968583 0.000000
vn 0.125333 0.992115 0.000000
vn 0.000000 1.000000 0.000000
vn -0.125333 0.992115 0.000000
vn 0.000000 1.000000 -0.000000
vn -0.125333 0.992115 0.000000
vn -0.248690 0.968583 0.000000
vn -0.368125 0.929776 0.000000
vn -0.248690 0.968583 0.000000
vn -0.368125 0.929776 0.000000
vn -0.481754 0.876307 0.000000
vn -0.481754 0.876307 0.000000
vn -0.587785 0.809017 0.000000
vn -0.587785 0.809017 0.000000
vn -0.684547 0.728969 0.000000
vn -0.684547 0.728969 0.000000
vn -0.770513 0.637424 0.000000
vn -0.770513 0.637424 0.000000
vn -0.844328 0.535827 0.000000
vn -0.904827 0.425779 0.000000
vn -0.844328 0.535827 0.000000
vn -0.904827 0.425779 0.000000
vn -0.951057 0.309017 0.000000
vn -0.951057 0.309017 0.000000
vn -0.982287 0.187381 0.000000
vn -0.982287 0.187381 0.000000
vn -0.998027 0.062790 0.000000
vn -0.998027 0.062790 0.000000
vn -0.998027 -0.062790 0.000000
vn -0.998027 -0.062790 0.000000
vn -0.982287 -0.187381 0.000000
vn -0.982287 -0.187381 0.000000
vn -0.951057 -0.309017 -0.000000
vn -0.951057 -0.309017 0.000000
vn -0.904827 -0.425779 0.000000
vn -0.904827 -0.425779 0.000000
vn -0.844328 -0.535827 0.000000
vn -0.844328 -0.535827 0.000000
vn -0.770513 -0.637424 0.000000
vn -0.770513 -0.637424 0.000000
vn -0.684547 -0.728969 0.000000
vn -0.684547 -0.728969 0.000000
vn -0.587785 -0.809017 0.000000
vn -0.587785 -0.809017 0.000000
vn -0.481754 -0.876307 0.000000
vn -0.481754 -0.876307 0.000000
vn -0.368125 -0.929776 0.000000
vn -0.368125 -0.929776 0.000000
vn -0.248690 -0.968583 0.000000
vn -0.248690 -0.968583 0.000000
vn -0.125333 -0.992115 0.000000
vn -0.125333 -0.992115 0.000000
vn 0.000000 -1.000000 0.000000
vn 0.000000 -1.000000 0.000000
vn 0.125333 -0.992115 0.000000
vn 0.125333 -0.992115 0.000000
vn 0.248690 -0.968583 0.000000
vn 0.368125 -0.929776 0.000000
vn 0.248690 -0.968583 0.000000
vn 0.481754 -0.876307 0.000000
vn 0.368125 -0.929776 0.000000
vn 0.481754 -0.876307 0.000000
vn 0.587785 -0.809017 0.000000
vn 0.587785 -0.809017 0.000000
vn 0.684547 -0.728969 0.000000
vn 0.770513 -0.637424 0.000000
vn 0.684547 -0.728969 0.000000
vn 0.844328 -0.535827 0.000000
vn 0.770513 -0.637424 0.000000
vn 0.844328 -0.535827 0.000000
vn 0.904827 -0.425779 0.000000
vn 0.904827 -0.425779 0.000000
vn 0.951057 -0.309017 0.000000
vn 0.951057 -0.309017 0.000000
vn 0.982287 -0.187381 0.000000
vn 0.982287 -0.187381 0.000000
vn 0.998027 -0.062790 0.000000
vn 0.998027 -0.062790 0.000000
vn 0.000000 0.000000 -1.000000
vn 0.000000 0.000000 -1.000000
vn 0.000000 0.000000 -1.000000
vn 0.000000 0.000000 -1.000000
vn 0.000000 0.000000 -1.000000
vn 0.000000 0.000000 -1.000000
vn 0.000000 0.000000 -1.000000
vn 0.000000 0.000000 -1.000000
vn 0.000000 -0.000000 -1.000000
vn 0.000000 0.000000 -1.000000
vn 0.000000 0.000000 -1.000000
vn 0.000000 0.000000 -1.000000
vn 0.000000 0.000000 -1.000000
vn 0.000000 -0.000000 -1.000000
vn 0.000000 -0.000000 -1.000000
vn 0.000000 -0.000000 -1.000000
vn 0.000000 -0.000000 -1.000000
vn 0.000000 0.000000 -1.000000
vn 0.000000 0.000000 -1.000000
vn 0.000000 -0.000000 -1.000000
vn 0.000000 0.000000 -1.000000
vn 0.000000 -0.000000 -1.000000
vn 0.000000 0.000000 -1.000000
vn 0.000000 0.000000 -1.000000
vn 0.000000 0.000000 -1.000000
vn 0.000000 0.000000 -1.000000
vn 0.000000 0.000000 -1.000000
vn 0.000000 0.000000 -1.000000
vn 0.000000 0.000000 -1.000000
vn 0.000000 0.000000 -1.000000
vn 0.000000 0.000000 -1.000000
vn 0.000000 -0.000000 -1.000000
vn 0.000000 -0.000000 -1.000000
vn 0.000000 -0.000000 -1.000000
vn 0.000000 0.000000 -1.000000
vn -0.000000 -0.000000 -1.000000
vn -0.000000 -0.000000 -1.000000
vn 0.000000 0.000000 -1.000000
vn 0.000000 0.000000 -1.000000
vn 0.000000 0.000000 -1.000000
vn -0.000000 -0.000000 -1.000000
vn -0.000000 -0.000000 -1.000000
vn 0.000000 -0.000000 -1.000000
vn -0.000000 -0.000000 -1.000000
vn 0.000000 0.000000 -1.000000
vn 0.000000 -0.000000 -1.000000
vn 0.000000 0.000000 -1.000000
vn 0.000000 0.000000 -1.000000
vn 0.000000 0.000000 1.000000
vn 0.000000 0.000000 1.000000
vn 0.000000 0.000000 1.000000
vn 0.000000 0.000000 1.000000
vn 0.000000 0.000000 1.000000
vn 0.000000 0.000000 1.000000
vn 0.000000 0.000000 1.000000
vn 0.000000 0.000000 1.000000
vn 0.000000 0.000000 1.000000
vn 0.000000 0.000000 1.000000
vn 0.000000 0.000000 1.000000
vn 0.000000 0.000000 1.000000
vn 0.000000 0.000000 1.000000
vn 0.000000 0.000000 1.000000
vn 0.000000 0.000000 1.000000
vn 0.000000 0.000000 1.000000
vn 0.000000 0.000000 1.000000
vn 0.000000 0.000000 1.000000
vn 0.000000 0.000000 1.000000
vn 0.000000 0.000000 1.000000
vn 0.000000 0.000000 1.000000
vn 0.000000 0.000000 1.000000
vn 0.000000 0.000000 1.000000
vn 0.000000 0.000000 1.000000
vn 0.000000 0.000000 1.000000
vn 0.000000 0.000000 1.000000
vn 0.000000 0.000000 1.000000
vn 0.000000 0.000000 1.000000
vn 0.000000 0.000000 1.000000
vn 0.000000 0.000000 1.000000
vn 0.000000 0.000000 1.000000
vn 0.000000 0.000000 1.000000
vn 0.000000 0.000000 1.000000
vn 0.000000 0.000000 1.000000
vn 0.000000 0.000000 1.000000
vn 0.000000 0.000000 1.000000
vn 0.000000 0.000000 1.000000
vn 0.000000 0.000000 1.000000
vn 0.000000 0.000000 1.000000
vn 0.000000 0.000000 1.000000
vn 0.000000 0.000000 1.000000
vn 0.000000 0.000000 1.000000
vn 0.000000 0.000000 1.000000
vn 0.000000 0.000000 1.000000
vn 0.000000 0.000000 1.000000
vn 0.000000 0.000000 1.000000
vn 0.000000 0.000000 1.000000
vn 0.000000 0.000000 1.000000
f 1//1 2//1 3//1
f 3//2 2//2 4//2
f 4//3 5//3 6//3
f 2//4 5//4 4//4
f 6//5 7//5 8//5
f 5//6 7//6 6//6
f 8//7 9//7 10//7
f 10//8 9//8 11//8
f 7//9 9//9 8//9
f 11//10 12//10 13//10
f 9//11 12//11 11//11
f 12//12 14//12 13//12
f 13//13 15//13 16//13
f 16//14 15//14 17//14
f 14//15 15//15 13//15
f 17//16 18//16 19//16
f 15//17 18//17 17//17
f 19//18 20//18 21//18
f 18//19 20//19 19//19
f 21//20 22//20 23//20
f 20//21 22//21 21//21
f 23//22 24//22 25//22
f 22//23 24//23 23//23
f 24//24 26//24 25//24
f 25//25 27//25 28//25
f 28//26 27//26 29//26
f 26//27 27//27 25//27
f 27//28 30//28 29//28
f 29//29 31//29 32//29
f 32//30 31//30 33//30
f 30//31 31//31 29//31
f 31//32 34//32 33//32
f 33//33 35//33 36//33
f 34//34 35//34 33//34
f 36//35 37//35 38//35
f 35//36 37//36 36//36
f 38//37 39//37 40//37
f 37//38 39//38 38//38
f 40//39 41//39 42//39
f 39//40 41//40 40//40
f 42//41 43//41 44//41
f 44//42 43//42 45//42
f 41//43 43//43 42//43
f 43//44 46//44 45//44
f 45//45 47//45 48//45
f 46//46 47//46 45//46
f 48//47 49//47 50//47
f 47//48 49//48 48//48
f 49//49 51//49 50//49
f 50//50 51//50 52//50
f 51//51 53//51 52//51
f 52//52 53//52 54//52
f 53//53 55//53 54//53
f 54//54 55//54 56//54
f 56//55 55//55 57//55
f 55//56 58//56 57//56
f 58//57 59//57 57//57
f 57//58 59//58 60//58
f 59//59 61//59 60//59
f 60//60 61//60 62//60
f 61//61 63//61 62//61
f 62//62 63//62 64//62
f 64//63 65//63 66//63
f 63//64 65//64 64//64
f 66//65 67//65 68//65
f 65//66 67//66 66//66
f 68//67 69//67 70//67
f 67//68 69//68 68//68
f 70//69 71//69 72//69
f 69//70 71//70 70//70
f 72//71 73//71 74//71
f 71//72 73//72 72//72
f 74//73 75//73 76//73
f 73//74 75//74 74//74
f 76//75 77//75 78//75
f 75//76 77//76 76//76
f 78//77 79//77 80//77
f 77//78 79//78 78//78
f 80//79 81//79 82//79
f 82//80 81//80 83//80
f 79//81 81//81 80//81
f 83//82 84//82 85//82
f 81//83 84//83 83//83
f 84//84 86//84 85//84
f 85//85 87//85 88//85
f 86//86 87//86 85//86
f 88//87 89//87 90//87
f 90//88 89//88 91//88
f 87//89 89//89 88//89
f 91//90 92//90 93//90
f 89//91 92//91 91//91
f 92//92 94//92 93//92
f 93//93 95//93 96//93
f 94//94 95//94 93//94
f 96//95 97//95 98//95
f 95//96 97//96 96//96
f 97//97 99//97 98//97
f 98//98 99//98 100//98
f 100//99 99//99 3//99
f 99//100 1//100 3//100
f 69//101 77//101 71//101
f 71//102 77//102 73//102
f 73//103 77//103 75//103
f 79//104 84//104 81//104
f 67//105 86//105 69//105
f 77//106 86//106 79//106
f 79//107 86//107 84//107
f 69//108 86//108 77//108
f 41//109 39//109 43//109
f 86//110 89//110 87//110
f 86//111 94//111 89//111
f 89//112 94//112 92//112
f 67//113 94//113 86//113
f 35//114 34//114 37//114
f 37//115 34//115 39//115
f 34//116 31//116 39//116
f 39//117 31//117 43//117
f 94//118 99//118 95//118
f 95//119 99//119 97//119
f 30//120 27//120 31//120
f 67//121 1//121 94//121
f 49//122 1//122 51//122
f 51//123 1//123 53//123
f 53//124 1//124 55//124
f 55//125 1//125 58//125
f 58//126 1//126 59//126
f 59//127 1//127 61//127
f 61//128 1//128 63//128
f 63//129 1//129 65//129
f 65//130 1//130 67//130
f 94//131 1//131 99//131
f 43//132 2//132 46//132
f 46//133 2//133 47//133
f 47//134 2//134 49//134
f 49//135 2//135 1//135
f 26//136 24//136 27//136
f 22//137 20//137 24//137
f 2//138 12//138 5//138
f 5//139 12//139 7//139
f 7//140 12//140 9//140
f 24//141 15//141 27//141
f 18//142 15//142 20//142
f 31//143 15//143 43//143
f 20//144 15//144 24//144
f 43//145 15//145 2//145
f 27//146 15//146 31//146
f 15//147 14//147 2//147
f 2//148 14//148 12//148
f 78//149 70//149 72//149
f 78//150 72//150 74//150
f 78//151 74//151 76//151
f 83//152 80//152 82//152
f 85//153 68//153 70//153
f 85//154 78//154 80//154
f 85//155 80//155 83//155
f 85//156 70//156 78//156
f 40//157 42//157 44//157
f 90//158 85//158 88//158
f 93//159 85//159 90//159
f 93//160 90//160 91//160
f 93//161 68//161 85//161
f 33//162 36//162 38//162
f 33//163 38//163 40//163
f 32//164 33//164 40//164
f 32//165 40//165 44//165
f 100//166 93//166 96//166
f 100//167 96//167 98//167
f 28//168 29//168 32//168
f 3//169 68//169 93//169
f 3//170 50//170 52//170
f 3//171 52//171 54//171
f 3//172 54//172 56//172
f 3//173 56//173 57//173
f 3//174 57//174 60//174
f 3//175 60//175 62//175
f 3//176 62//176 64//176
f 3//177 64//177 66//177
f 3//178 66//178 68//178
f 3//179 93//179 100//179
f 4//180 44//180 45//180
f 4//181 45//181 48//181
f 4//182 48//182 50//182
f 4//183 50//183 3//183
f 23//184 25//184 28//184
f 19//185 21//185 23//185
f 11//186 4//186 6//186
f 11//187 6//187 8//187
f 11//188 8//188 10//188
f 16//189 23//189 28//189
f 16//190 17//190 19//190
f 16//191 32//191 44//191
f 16//192 19//192 23//192
f 16//193 44//193 4//193
f 16//194 28//194 32//194
f 13//195 16//195 4//195
f 13//196 4//196 11//196
